<?xml version="1.0" encoding="utf-8"?>
<!-- Generator: Adobe Illustrator 16.0.0, SVG Export Plug-In . SVG Version: 6.00 Build 0)  -->
<!DOCTYPE svg PUBLIC "-//W3C//DTD SVG 1.1//EN" "http://www.w3.org/Graphics/SVG/1.1/DTD/svg11.dtd">
<svg version="1.1" id="Layer_1" xmlns="http://www.w3.org/2000/svg" xmlns:xlink="http://www.w3.org/1999/xlink" x="0px" y="0px"
	 width="64px" height="40px" viewBox="0 12 64 40" enable-background="new 0 12 64 40" xml:space="preserve">
<g>
	<g>
		<g>
			<path fill="#FFB600" d="M63.5,32c0,10.4-8.4,18.9-18.9,18.9C34.2,50.9,25.7,42.4,25.7,32l0,0c0-10.4,8.399-18.9,18.8-18.9
				C55.1,13.1,63.5,21.6,63.5,32L63.5,32z"/>
		</g>
	</g>
	<g>
		<g>
			<path fill="#F7981D" d="M44.6,13.1c10.4,0,18.9,8.5,18.9,18.9l0,0c0,10.4-8.4,18.9-18.9,18.9C34.2,50.9,25.7,42.4,25.7,32"/>
		</g>
	</g>
	<g>
		<g>
			<path fill="#FF8500" d="M44.6,13.1c10.4,0,18.9,8.5,18.9,18.9l0,0c0,10.4-8.4,18.9-18.9,18.9"/>
		</g>
	</g>
	<g>
		<g>
			<path fill="#FF5050" d="M19.2,13.1C8.9,13.2,0.5,21.6,0.5,32c0,10.4,8.4,18.9,18.9,18.9c4.9,0,9.3-1.9,12.7-4.9l0,0l0,0
				c0.7-0.6,1.3-1.3,1.9-2h-3.9c-0.5-0.6-1-1.3-1.4-1.9h6.7c0.399-0.6,0.8-1.3,1.1-2h-8.9c-0.3-0.6-0.6-1.3-0.8-2h10.4
				c0.6-1.899,1-3.899,1-6c0-1.4-0.2-2.7-0.4-4H26.2c0.1-0.7,0.3-1.3,0.5-2H37.1c-0.199-0.7-0.5-1.4-0.8-2h-8.8
				c0.3-0.7,0.7-1.3,1.1-2h6.7c-0.399-0.7-0.899-1.4-1.5-2h-3.7c0.6-0.7,1.2-1.3,1.9-1.9c-3.3-3.1-7.8-4.9-12.7-4.9
				C19.3,13.1,19.3,13.1,19.2,13.1z"/>
		</g>
	</g>
	<g>
		<g>
			<path fill="#E52836" d="M0.5,32c0,10.4,8.4,18.9,18.9,18.9c4.9,0,9.3-1.9,12.7-4.9l0,0l0,0c0.7-0.6,1.3-1.3,1.9-2h-3.9
				c-0.5-0.6-1-1.3-1.4-1.9h6.7c0.399-0.6,0.8-1.3,1.1-2h-8.9c-0.3-0.6-0.6-1.3-0.8-2h10.4c0.6-1.899,1-3.899,1-6
				c0-1.4-0.2-2.7-0.4-4H26.2c0.1-0.7,0.3-1.3,0.5-2H37.1c-0.199-0.7-0.5-1.4-0.8-2h-8.8c0.3-0.7,0.7-1.3,1.1-2h6.7
				c-0.399-0.7-0.899-1.4-1.5-2h-3.7c0.6-0.7,1.2-1.3,1.9-1.9c-3.3-3.1-7.8-4.9-12.7-4.9h-0.1"/>
		</g>
	</g>
	<g>
		<g>
			<path fill="#CB2026" d="M19.4,50.9c4.9,0,9.3-1.9,12.7-4.9l0,0l0,0c0.7-0.6,1.3-1.3,1.9-2h-3.9c-0.5-0.6-1-1.3-1.4-1.9h6.7
				c0.399-0.6,0.8-1.3,1.1-2h-8.9c-0.3-0.6-0.6-1.3-0.8-2h10.4c0.6-1.899,1-3.899,1-6c0-1.4-0.2-2.7-0.4-4H26.2
				c0.1-0.7,0.3-1.3,0.5-2H37.1c-0.199-0.7-0.5-1.4-0.8-2h-8.8c0.3-0.7,0.7-1.3,1.1-2h6.7c-0.399-0.7-0.899-1.4-1.5-2h-3.7
				c0.6-0.7,1.2-1.3,1.9-1.9c-3.3-3.1-7.8-4.9-12.7-4.9h-0.1"/>
		</g>
	</g>
	<g>
		<g>
			<g>
				<path fill="#FFFFFF" d="M26.1,36.8l0.3-1.7c-0.1,0-0.3,0.101-0.5,0.101c-0.7,0-0.8-0.4-0.7-0.601l0.6-3.5h1.1l0.3-1.9h-1
					l0.2-1.2h-2c0,0-1.2,6.6-1.2,7.4c0,1.199,0.7,1.699,1.6,1.699C25.4,37.1,25.9,36.9,26.1,36.8z"/>
			</g>
		</g>
		<g>
			<g>
				<path fill="#FFFFFF" d="M26.8,33.6c0,2.801,1.9,3.5,3.5,3.5c1.5,0,2.1-0.3,2.1-0.3l0.4-1.899c0,0-1.1,0.5-2.1,0.5
					c-2.2,0-1.8-1.601-1.8-1.601H33c0,0,0.3-1.3,0.3-1.8c0-1.3-0.7-2.9-2.9-2.9C28.3,28.9,26.8,31.1,26.8,33.6z M30.3,30.7
					c1.1,0,0.9,1.3,0.9,1.4H29C29,32,29.2,30.7,30.3,30.7z"/>
			</g>
		</g>
		<g>
			<g>
				<path fill="#FFFFFF" d="M43,36.8l0.4-2.2c0,0-1,0.5-1.7,0.5c-1.4,0-2-1.1-2-2.3c0-2.4,1.2-3.7,2.6-3.7c1,0,1.8,0.6,1.8,0.6
					l0.301-2.1c0,0-1.2-0.5-2.301-0.5c-2.3,0-4.6,2-4.6,5.8c0,2.5,1.2,4.199,3.6,4.199C41.9,37.1,43,36.8,43,36.8z"/>
			</g>
		</g>
		<g>
			<g>
				<path fill="#FFFFFF" d="M15.1,28.9c-1.4,0-2.4,0.4-2.4,0.4L12.4,31c0,0,0.9-0.4,2.2-0.4c0.7,0,1.3,0.1,1.3,0.7
					c0,0.4-0.1,0.5-0.1,0.5s-0.6,0-0.9,0c-1.7,0-3.6,0.7-3.6,3c0,1.8,1.2,2.2,1.9,2.2c1.4,0,2-0.9,2.1-0.9L15.2,36.9H17l0.8-5.5
					C17.8,29,15.8,28.9,15.1,28.9z M15.5,33.4c0,0.3-0.2,1.899-1.4,1.899c-0.6,0-0.8-0.5-0.8-0.8c0-0.5,0.3-1.2,1.8-1.2
					C15.4,33.4,15.5,33.4,15.5,33.4z"/>
			</g>
		</g>
		<g>
			<g>
				<path fill="#FFFFFF" d="M19.7,37c0.5,0,3,0.1,3-2.6c0-2.5-2.4-2-2.4-3c0-0.5,0.4-0.7,1.1-0.7c0.3,0,1.4,0.1,1.4,0.1l0.3-1.8
					c0,0-0.7-0.2-1.9-0.2c-1.5,0-3,0.6-3,2.6c0,2.3,2.5,2.1,2.5,3c0,0.6-0.7,0.699-1.2,0.699c-0.9,0-1.8-0.3-1.8-0.3l-0.3,1.8
					C17.5,36.8,18,37,19.7,37z"/>
			</g>
		</g>
		<g>
			<g>
				<path fill="#FFFFFF" d="M59.6,27.3L59.2,30c0,0-0.8-1-1.9-1c-1.8,0-3.399,2.2-3.399,4.8c0,1.601,0.8,3.3,2.5,3.3
					c1.199,0,1.899-0.8,1.899-0.8L58.2,37h2l1.5-9.6L59.6,27.3z M58.7,32.6c0,1.101-0.5,2.5-1.601,2.5c-0.699,0-1.1-0.6-1.1-1.6
					c0-1.6,0.7-2.6,1.6-2.6C58.3,30.9,58.7,31.4,58.7,32.6z"/>
			</g>
		</g>
		<g>
			<g>
				<path fill="#FFFFFF" d="M4.2,36.9l1.2-7.2l0.2,7.2H7l2.6-7.2l-1.1,7.2h2.1l1.6-9.601H8.9l-2,5.9l-0.1-5.9H3.9L2.3,36.9H4.2z"/>
			</g>
		</g>
		<g>
			<g>
				<path fill="#FFFFFF" d="M35.2,36.9c0.6-3.301,0.7-6,2.1-5.5c0.2-1.3,0.5-1.8,0.7-2.3c0,0-0.1,0-0.4,0c-0.899,0-1.6,1.2-1.6,1.2
					l0.2-1.1h-1.9L33,37h2.2V36.9z"/>
			</g>
		</g>
		<g>
			<g>
				<path fill="#FFFFFF" d="M47.6,28.9c-1.399,0-2.399,0.4-2.399,0.4L44.9,31c0,0,0.899-0.4,2.199-0.4c0.7,0,1.301,0.1,1.301,0.7
					c0,0.4-0.101,0.5-0.101,0.5s-0.6,0-0.899,0c-1.7,0-3.601,0.7-3.601,3c0,1.8,1.2,2.2,1.9,2.2c1.399,0,2-0.9,2.1-0.9L47.7,36.9
					h1.8l0.8-5.5C50.4,29,48.3,28.9,47.6,28.9z M48.1,33.4c0,0.3-0.199,1.899-1.399,1.899c-0.601,0-0.8-0.5-0.8-0.8
					c0-0.5,0.3-1.2,1.8-1.2C48,33.4,48,33.4,48.1,33.4z"/>
			</g>
		</g>
		<g>
			<g>
				<path fill="#FFFFFF" d="M52,36.9c0.6-3.301,0.7-6,2.1-5.5c0.2-1.3,0.5-1.8,0.7-2.3c0,0-0.1,0-0.399,0
					c-0.9,0-1.601,1.2-1.601,1.2l0.2-1.1h-1.9L49.8,37H52V36.9z"/>
			</g>
		</g>
	</g>
	<g>
		<g>
			<g>
				<path fill="#DCE5E5" d="M23,35.4c0,1.199,0.7,1.699,1.6,1.699c0.7,0,1.3-0.199,1.5-0.3l0.3-1.7c-0.1,0-0.3,0.101-0.5,0.101
					c-0.7,0-0.8-0.4-0.7-0.601l0.6-3.5h1.1l0.3-1.9h-1l0.2-1.2"/>
			</g>
		</g>
		<g>
			<g>
				<path fill="#DCE5E5" d="M27.8,33.6c0,2.801,0.9,3.5,2.5,3.5c1.5,0,2.1-0.3,2.1-0.3l0.4-1.899c0,0-1.1,0.5-2.1,0.5
					c-2.2,0-1.8-1.601-1.8-1.601H33c0,0,0.3-1.3,0.3-1.8c0-1.3-0.7-2.9-2.9-2.9C28.3,28.9,27.8,31.1,27.8,33.6z M30.3,30.7
					c1.1,0,1.3,1.3,1.3,1.4H29C29,32,29.2,30.7,30.3,30.7z"/>
			</g>
		</g>
		<g>
			<g>
				<path fill="#DCE5E5" d="M43,36.8l0.4-2.2c0,0-1,0.5-1.7,0.5c-1.4,0-2-1.1-2-2.3c0-2.4,1.2-3.7,2.6-3.7c1,0,1.8,0.6,1.8,0.6
					l0.301-2.1c0,0-1.2-0.5-2.301-0.5c-2.3,0-3.6,2-3.6,5.8c0,2.5,0.2,4.199,2.6,4.199C41.9,37.1,43,36.8,43,36.8z"/>
			</g>
		</g>
		<g>
			<g>
				<path fill="#DCE5E5" d="M12.4,31.1c0,0,0.9-0.4,2.2-0.4c0.7,0,1.3,0.1,1.3,0.7c0,0.4-0.1,0.5-0.1,0.5s-0.6,0-0.9,0
					c-1.7,0-3.6,0.7-3.6,3c0,1.8,1.2,2.199,1.9,2.199c1.4,0,2-0.899,2.1-0.899L15.2,37H17l0.8-5.5c0-2.3-2-2.4-2.8-2.4 M16.5,33.4
					c0,0.3-1.2,1.899-2.4,1.899c-0.6,0-0.8-0.5-0.8-0.8c0-0.5,0.3-1.2,1.8-1.2C15.4,33.4,16.5,33.4,16.5,33.4z"/>
			</g>
		</g>
		<g>
			<g>
				<path fill="#DCE5E5" d="M17.5,36.8c0,0,0.6,0.2,2.3,0.2c0.5,0,3,0.1,3-2.6c0-2.5-2.4-2-2.4-3c0-0.5,0.4-0.7,1.1-0.7
					c0.3,0,1.4,0.1,1.4,0.1l0.3-1.8c0,0-0.7-0.2-1.9-0.2c-1.5,0-2,0.6-2,2.6c0,2.3,1.5,2.1,1.5,3c0,0.6-0.7,0.699-1.2,0.699"/>
			</g>
		</g>
		<g>
			<g>
				<path fill="#DCE5E5" d="M59.2,30c0,0-0.8-1-1.9-1c-1.8,0-2.399,2.2-2.399,4.8c0,1.601-0.2,3.3,1.5,3.3
					c1.199,0,1.899-0.8,1.899-0.8L58.2,37h2l1.5-9.6 M59.1,32.6c0,1.101-0.899,2.5-2,2.5c-0.699,0-1.1-0.6-1.1-1.6
					c0-1.6,0.7-2.6,1.6-2.6C58.3,30.9,59.1,31.4,59.1,32.6z"/>
			</g>
		</g>
		<g>
			<g>
				<path fill="#DCE5E5" d="M4.2,36.9l1.2-7.2l0.2,7.2H7l2.6-7.2l-1.1,7.2h2.1l1.6-9.601H9.7l-2.8,5.9l-0.1-5.9H5.7L2.3,36.9H4.2z"
					/>
			</g>
		</g>
		<g>
			<g>
				<path fill="#DCE5E5" d="M33.1,36.9H35.2c0.6-3.301,0.7-6,2.1-5.5c0.2-1.3,0.5-1.8,0.7-2.3c0,0-0.1,0-0.4,0
					c-0.899,0-1.6,1.2-1.6,1.2l0.2-1.1"/>
			</g>
		</g>
		<g>
			<g>
				<path fill="#DCE5E5" d="M44.9,31.1c0,0,0.899-0.4,2.199-0.4c0.7,0,1.301,0.1,1.301,0.7c0,0.4-0.101,0.5-0.101,0.5
					s-0.6,0-0.899,0c-1.7,0-3.601,0.7-3.601,3c0,1.8,1.2,2.199,1.9,2.199c1.399,0,2-0.899,2.1-0.899L47.7,37h1.8l0.8-5.5
					c0-2.3-2-2.4-2.8-2.4 M49,33.4c0,0.3-1.2,1.899-2.4,1.899c-0.6,0-0.8-0.5-0.8-0.8c0-0.5,0.3-1.2,1.8-1.2
					C48,33.4,49,33.4,49,33.4z"/>
			</g>
		</g>
		<g>
			<g>
				<path fill="#DCE5E5" d="M49.9,36.9H52c0.6-3.301,0.7-6,2.1-5.5c0.2-1.3,0.5-1.8,0.7-2.3c0,0-0.1,0-0.399,0
					c-0.9,0-1.601,1.2-1.601,1.2l0.2-1.1"/>
			</g>
		</g>
	</g>
</g>
</svg>
