<?xml version="1.0" encoding="utf-8"?>
<!-- Generator: Adobe Illustrator 16.0.0, SVG Export Plug-In . SVG Version: 6.00 Build 0)  -->
<!DOCTYPE svg PUBLIC "-//W3C//DTD SVG 1.1//EN" "http://www.w3.org/Graphics/SVG/1.1/DTD/svg11.dtd">
<svg version="1.1" id="Layer_1" xmlns="http://www.w3.org/2000/svg" xmlns:xlink="http://www.w3.org/1999/xlink" x="0px" y="0px"
	 width="64px" height="40px" viewBox="0 12 64 40" enable-background="new 0 12 64 40" xml:space="preserve">
<g>
	<g>
		<path fill="#139AD6" d="M49.7,27.2h-3.4c-0.2,0-0.399,0.2-0.5,0.4L44.4,36.4c0,0.199,0.1,0.299,0.3,0.299h1.8
			c0.2,0,0.3-0.1,0.3-0.299l0.4-2.5c0-0.201,0.2-0.4,0.5-0.4h1.1c2.3,0,3.601-1.1,3.9-3.3c0.2-0.9,0-1.7-0.4-2.2
			C51.7,27.5,50.8,27.2,49.7,27.2 M50.1,30.5c-0.199,1.2-1.1,1.2-2,1.2h-0.6l0.4-2.3c0-0.1,0.1-0.2,0.3-0.2h0.2
			c0.6,0,1.199,0,1.5,0.4C50.1,29.7,50.1,30,50.1,30.5"/>
	</g>
	<g>
		<path fill="#263B80" d="M25.2,27.2h-3.4c-0.2,0-0.399,0.2-0.5,0.4L19.9,36.4c0,0.199,0.1,0.299,0.3,0.299h1.6
			c0.2,0,0.4-0.199,0.5-0.4l0.4-2.398c0-0.201,0.2-0.4,0.5-0.4h1.1c2.3,0,3.601-1.1,3.9-3.3c0.2-0.9,0-1.7-0.4-2.2
			C27.2,27.5,26.4,27.2,25.2,27.2 M25.6,30.5c-0.199,1.2-1.1,1.2-2,1.2h-0.5l0.4-2.3c0-0.1,0.1-0.2,0.3-0.2H24c0.6,0,1.2,0,1.5,0.4
			C25.6,29.7,25.7,30,25.6,30.5"/>
	</g>
	<g>
		<path fill="#263B80" d="M35.5,30.399h-1.6c-0.101,0-0.301,0.1-0.301,0.2l-0.1,0.5l-0.1-0.2c-0.4-0.5-1.101-0.7-1.9-0.7
			c-1.8,0-3.4,1.399-3.7,3.3c-0.2,1,0.101,1.9,0.601,2.5s1.199,0.799,2.1,0.799c1.5,0,2.3-0.898,2.3-0.898l-0.1,0.5
			c0,0.199,0.1,0.299,0.3,0.299h1.5c0.2,0,0.4-0.199,0.5-0.4l0.9-5.599C35.8,30.6,35.6,30.399,35.5,30.399 M33.2,33.6
			c-0.2,0.9-0.9,1.6-1.9,1.6c-0.5,0-0.899-0.199-1.1-0.4C30,34.5,29.9,34.1,29.9,33.6c0.1-0.9,0.899-1.6,1.8-1.6
			c0.5,0,0.8,0.2,1.1,0.4C33.1,32.699,33.2,33.199,33.2,33.6"/>
	</g>
	<g>
		<path fill="#139AD6" d="M59.9,30.399H58.3c-0.1,0-0.3,0.1-0.3,0.2l-0.1,0.5l-0.101-0.2c-0.399-0.5-1.1-0.7-1.899-0.7
			c-1.801,0-3.4,1.399-3.7,3.3c-0.2,1,0.1,1.9,0.6,2.5s1.2,0.799,2.101,0.799c1.5,0,2.3-0.898,2.3-0.898L57.1,36.4
			c0,0.199,0.101,0.299,0.301,0.299h1.5c0.199,0,0.399-0.199,0.5-0.4L60.3,30.7C60.2,30.6,60.1,30.399,59.9,30.399 M57.6,33.6
			c-0.199,0.9-0.899,1.6-1.899,1.6c-0.5,0-0.9-0.199-1.101-0.4C54.4,34.5,54.3,34.1,54.3,33.6c0.101-0.9,0.9-1.6,1.8-1.6
			c0.5,0,0.801,0.2,1.101,0.4C57.6,32.699,57.7,33.199,57.6,33.6"/>
	</g>
	<g>
		<g>
			<path fill="#263B80" d="M44.2,30.399h-1.7c-0.2,0-0.3,0.1-0.4,0.2L39.9,34l-1-3.201c-0.101-0.2-0.2-0.3-0.5-0.3H36.8
				c-0.2,0-0.3,0.2-0.3,0.4l1.8,5.3l-1.7,2.4c-0.1,0.199,0,0.5,0.2,0.5H38.4c0.199,0,0.3-0.1,0.399-0.199L44.3,31
				C44.6,30.7,44.4,30.399,44.2,30.399"/>
		</g>
		<g>
			<path fill="#139AD6" d="M61.8,27.5l-1.399,9c0,0.199,0.1,0.299,0.3,0.299H62.1c0.2,0,0.4-0.199,0.5-0.398L64,27.6
				c0-0.2-0.1-0.3-0.3-0.3H62.1C62,27.2,61.9,27.299,61.8,27.5"/>
		</g>
		<g>
			<path fill="#263B80" d="M12.5,24.2c-0.7-0.8-2-1.2-3.8-1.2h-5c-0.3,0-0.601,0.3-0.7,0.6l-2,13.1c0,0.301,0.2,0.5,0.4,0.5h3.1
				l0.8-4.9v0.2C5.4,32.2,5.7,31.9,6,31.9h1.5c2.9,0,5.1-1.2,5.8-4.5c0-0.1,0-0.2,0-0.3c-0.1,0-0.1,0,0,0
				C13.4,25.799,13.2,25,12.5,24.2"/>
		</g>
	</g>
	<g>
		<path fill="#139AD6" d="M13.2,27.1L13.2,27.1c0,0.1,0,0.2,0,0.3c-0.7,3.4-2.9,4.5-5.8,4.5H5.9c-0.301,0-0.601,0.3-0.7,0.6l-1,6.1
			C4.2,38.799,4.3,39,4.6,39H7.2c0.3,0,0.6-0.201,0.6-0.5v-0.1l0.5-3.102V35.1c0-0.301,0.3-0.5,0.601-0.5H9.3c2.5,0,4.5-1,5-4
			c0.2-1.2,0.101-2.3-0.5-3C13.7,27.399,13.5,27.2,13.2,27.1"/>
	</g>
	<g>
		<path fill="#232C65" d="M12.5,26.799c-0.1,0-0.2-0.1-0.3-0.1c-0.101,0-0.2,0-0.3-0.1c-0.4-0.1-0.801-0.1-1.301-0.1H6.7
			c-0.101,0-0.2,0-0.3,0.1c-0.2,0.1-0.301,0.3-0.301,0.5l-0.8,5.2v0.2C5.4,32.2,5.7,31.9,6,31.9h1.5c2.9,0,5.1-1.2,5.8-4.5
			c0-0.1,0-0.2,0.101-0.3c-0.2-0.1-0.301-0.2-0.5-0.2C12.6,26.799,12.6,26.799,12.5,26.799"/>
	</g>
</g>
</svg>
