<?xml version="1.0" encoding="utf-8"?>
<!-- Generator: Adobe Illustrator 16.0.0, SVG Export Plug-In . SVG Version: 6.00 Build 0)  -->
<!DOCTYPE svg PUBLIC "-//W3C//DTD SVG 1.1//EN" "http://www.w3.org/Graphics/SVG/1.1/DTD/svg11.dtd">
<svg version="1.1" id="Layer_1" xmlns="http://www.w3.org/2000/svg" xmlns:xlink="http://www.w3.org/1999/xlink" x="0px" y="0px"
	 width="64px" height="40px" viewBox="0 12 64 40" enable-background="new 0 12 64 40" xml:space="preserve">
<g>
	<g>
		<g>
			<g>
				<g>
					<path fill="#B73091" d="M49.692,22.897l5.061-0.912V41.62h-5.061V22.897z M57.789,22.897V41.62h5.061V21.985L57.789,22.897z
						 M42.608,41.62h5.06V27.451h-5.06V41.62z M7.995,29.375c-0.708,0-2.227-0.102-2.227-1.518c0-1.62,2.227-1.62,3.036-1.62
						c1.417,0,3.341,0.405,4.656,0.81c0,0,0.91,0.304,1.518,0.506h0.203v-0.101v-4.454l-0.203-0.101
						c-1.62-0.506-3.542-1.113-6.882-1.113c-5.871,0.202-7.996,3.643-7.996,6.579c0,1.72,0.709,5.667,7.49,6.173
						c0.606,0,2.125,0.102,2.125,1.519c0,1.215-1.417,1.821-3.542,1.821c-2.328,0-4.048-0.606-6.073-1.112v4.655
						c2.024,0.506,4.454,0.809,7.186,0.809c5.769,0,8.401-3.237,8.401-6.477C15.687,32.106,12.853,29.779,7.995,29.375z
						 M39.471,27.147c-4.858,0.101-6.983,2.328-6.983,6.579v7.894h5.061v-6.376c0-2.53,0-3.644,3.036-3.745v-4.251
						C40.584,27.046,39.471,27.147,39.471,27.147z M25.403,27.451c-0.101,0-1.012,2.53-3.036,4.959V21.985L17.306,23.1V41.62h5.061
						v-5.466c2.024,2.329,2.429,5.466,2.429,5.466h6.477c-0.607-2.024-3.44-7.287-3.44-7.287c2.53-3.137,3.643-6.882,3.744-6.882
						H25.403z M45.139,25.933c1.417,0,2.529-1.113,2.529-2.53s-1.112-2.53-2.529-2.53c-1.418,0-2.53,1.113-2.53,2.53
						S43.721,25.933,45.139,25.933z"/>
				</g>
			</g>
		</g>
	</g>
	<g>
		<g>
			<g>
				<g>
					<path fill="#862165" d="M51.717,22.492l3.036-0.506V41.62h-5.061L51.717,22.492z M59.61,22.593L57.789,41.62h5.061V21.985
						L59.61,22.593z M42.608,41.62h5.06V27.451h-2.124L42.608,41.62z M0.101,28.362c0,1.72,0.709,5.667,7.388,6.173
						c0.608,0,3.036,0.102,3.036,1.519c0,1.215-2.428,1.821-4.453,1.821c-2.328,0-4.048-0.606-6.072-1.112v4.655
						c2.024,0.506,4.453,0.809,7.186,0.809c5.769,0,8.4-3.237,8.4-6.477c0-3.644-2.833-5.971-7.691-6.375
						c-0.708,0-2.126-0.102-2.126-1.518c0-1.62,2.227-1.62,3.036-1.62c1.417,0,3.341,0.405,4.656,0.81c0,0,0.91,0.304,1.518,0.506
						h0.203v-0.101v-4.454l-0.203-0.101c-1.62-0.506-3.542-1.113-6.882-1.113 M32.487,33.523v8.097h5.061v-6.376
						c0-2.53,0-3.644,3.036-3.745v-4.251c0-0.101-1.113-0.101-1.113-0.101 M17.306,41.62h5.061v-5.466
						c2.024,2.329,4.352,5.466,4.352,5.466h4.454c-0.608-2.024-3.441-7.287-3.441-7.287c2.53-3.137,3.645-6.882,3.744-6.882h-3.036
						c-0.101,0-4.048,2.53-6.072,4.959v-10.02 M45.139,25.933c1.417,0,2.529-1.113,2.529-2.53s-1.112-2.53-2.529-2.53"/>
				</g>
			</g>
		</g>
	</g>
</g>
</svg>
