<?xml version="1.0" encoding="utf-8"?>
<!-- Generator: Adobe Illustrator 16.0.0, SVG Export Plug-In . SVG Version: 6.00 Build 0)  -->
<!DOCTYPE svg PUBLIC "-//W3C//DTD SVG 1.1//EN" "http://www.w3.org/Graphics/SVG/1.1/DTD/svg11.dtd">
<svg version="1.1" id="Layer_1" xmlns="http://www.w3.org/2000/svg" xmlns:xlink="http://www.w3.org/1999/xlink" x="0px" y="0px"
	 width="64px" height="40px" viewBox="0 12 64 40" enable-background="new 0 12 64 40" xml:space="preserve">
<g id="形状_1_3_" enable-background="new    ">
	<g id="形状_1">
		<g>
			<path fill="#005BAC" d="M25.166,22.768l-3.17,19.477h5.071l3.17-19.477H25.166z M17.73,22.768l-4.835,13.397l-0.572-2.885h0
				l-0.126-0.646c-0.585-1.262-1.94-3.658-4.499-5.703c-0.756-0.604-1.519-1.12-2.256-1.561l4.394,16.875h5.284l8.067-19.477H17.73z
				 M37.52,28.175c0-2.202,4.939-1.919,7.109-0.724l0.723-4.183c0,0-2.232-0.849-4.561-0.849c-2.518,0-8.492,1.101-8.492,6.448
				c0,5.033,7.014,5.096,7.014,7.737c0,2.643-6.291,2.171-8.367,0.504l-0.754,4.371c0,0,2.264,1.101,5.725,1.101
				c3.459,0,8.68-1.792,8.68-6.668C44.596,30.849,37.52,30.377,37.52,28.175z M58.211,22.768h-4.076c-1.883,0-2.34,1.452-2.34,1.452
				L44.23,42.245h5.287l1.059-2.894h6.443l0.596,2.894h4.656L58.211,22.768z M52.035,35.354l2.664-7.288l1.498,7.288H52.035z"/>
		</g>
	</g>
</g>
<g id="形状_1_2_" enable-background="new    ">
	<g id="形状_1_1_">
		<g>
			<path fill="#F6AC1D" d="M10.687,24.602c0,0-0.209-1.758-2.45-1.758H0.096L0,23.174c0,0,3.913,0.797,7.667,3.787
				c3.587,2.856,4.758,6.418,4.758,6.418L10.687,24.602z"/>
		</g>
	</g>
</g>
</svg>
