<svg id="Layer_1" data-name="Layer 1" xmlns="http://www.w3.org/2000/svg" viewBox="0 0 512 512"><defs><style>.cls-1{fill:#141f38;}</style></defs><title>bag-glyph</title><path class="cls-1" d="M153.6,170V102.4a92.56,92.56,0,0,1,.83-12.74c-39.62,1.28-72.06,30.66-75.9,69.31L54.69,396.8H457.31L433.47,159c-3.84-38.66-36.29-68-75.9-69.31a92.56,92.56,0,0,1,.83,12.74V170a25.6,25.6,0,1,1-25.6,0V102.4a76.77,76.77,0,0,0-1.09-12.8h23.1c.88,0,1.82,0,2.71.06a102.31,102.31,0,0,0-203,0c.88-.06,1.82-.06,2.71-.06h23.1a76.77,76.77,0,0,0-1.09,12.8V170a25.6,25.6,0,1,1-25.6,0ZM180.36,89.6a76.7,76.7,0,0,1,151.29,0ZM460.42,427.78a74.46,74.46,0,0,1-19.33,58.11A80,80,0,0,1,381.76,512H130.24a80,80,0,0,1-59.33-26.11,74.46,74.46,0,0,1-19.33-58.11l.54-5.38H459.88Z"/></svg>